<svg width="30" height="30" viewBox="0 0 30 30" fill="none" xmlns="http://www.w3.org/2000/svg">
<path d="M21.833 0H10.7771C4.83599 0 0 4.83073 0 10.7718C0 16.7129 4.83599 21.5436 10.7771 21.5436H16.8602C18.1389 21.5436 19.1756 20.5017 19.1756 19.2282C19.1756 17.9547 18.1337 16.9128 16.8602 16.9128H10.7771C7.39344 16.9128 4.63603 14.1607 4.63603 10.7718C4.63603 7.38292 7.38818 4.63077 10.7771 4.63077H21.833C23.1117 4.63077 24.1484 3.58884 24.1484 2.31538C24.1484 1.04192 23.1065 0 21.833 0Z" fill="#0EEBAA"/>
<path d="M2.58374 27.6848C2.58374 28.9635 3.62566 30.0001 4.89912 30.0001H18.5336C24.4746 30.0001 29.3054 25.1694 29.3054 19.2283C29.3054 13.2873 24.4746 8.45654 18.5336 8.45654H12.4452C11.1664 8.45654 10.1298 9.49847 10.1298 10.7719C10.1298 12.0454 11.1717 13.0873 12.4452 13.0873H18.5336C21.9172 13.0873 24.6746 15.8395 24.6746 19.2283C24.6746 22.6172 21.9225 25.3694 18.5336 25.3694H4.89912C3.6204 25.3694 2.58374 26.4113 2.58374 27.6848Z" fill="#0EEBAA"/>
</svg>
